<svg width="49" height="48" viewBox="0 0 49 48" fill="none" xmlns="http://www.w3.org/2000/svg">
<path d="M12.9946 36.9144L16.452 39L36.0438 11.4866L32.7401 9L12.9946 36.9144ZM8.5 17.1417C8.5 21.3128 11.6885 24.2406 15.8758 24.2406C20.063 24.2406 23.2131 21.3128 23.2131 17.1417C23.2131 12.9305 20.063 10.0027 15.8758 10.0027C11.6885 10.0027 8.5 12.9305 8.5 17.1417ZM12.8409 17.1417C12.8409 15.1765 14.2623 13.893 15.8758 13.893C17.4892 13.893 18.8721 15.1765 18.8721 17.1417C18.8721 19.1471 17.5276 20.4305 15.8758 20.4305C14.3007 20.4305 12.8409 19.1471 12.8409 17.1417ZM25.7869 31.2193C25.7869 35.3904 28.9754 38.3583 33.1627 38.3583C37.3115 38.3583 40.5 35.3904 40.5 31.2193C40.5 27.008 37.3115 24.1203 33.1627 24.1203C28.9754 24.1203 25.7869 27.008 25.7869 31.2193ZM30.1278 31.2193C30.1278 29.2139 31.5492 27.9305 33.1627 27.9305C34.7377 27.9305 36.1591 29.2139 36.1591 31.2193C36.1591 33.1845 34.7761 34.4679 33.1627 34.4679C31.5876 34.4679 30.1278 33.1845 30.1278 31.2193Z" fill="#1A246F"/>
</svg>
